<?xml version="1.0" encoding="UTF-8"?>
<svg xmlns="http://www.w3.org/2000/svg" viewBox="0 0 300 220" width="100%" height="100%">
  <defs>
    <linearGradient id="viGradient" x1="0%" y1="0%" x2="100%" y2="100%">
      <stop offset="0%" stop-color="#ff7eb3"/>
      <stop offset="35%" stop-color="#ff758c"/>
      <stop offset="70%" stop-color="#703b87"/>
      <stop offset="100%" stop-color="#3c1d5a"/>
    </linearGradient>
    <filter id="shadow" x="-20%" y="-20%" width="140%" height="140%">
      <feDropShadow dx="0" dy="4" stdDeviation="6" flood-color="#000000" flood-opacity="0.8"/>
    </filter>
  </defs>
  
  <!-- VI Background -->
  <g transform="translate(30.39999999999999, 19) scale(5.2)" filter="url(#shadow)">
    <path d="M46.2661 0.800781H34.7236V34.4008H46.2661V0.800781Z" fill="url(#viGradient)"/>
    <path d="M33.9162 0.800781L17.3358 34.4008L0.776855 0.800781H12.3139L17.3332 11.5445L22.3766 0.800781H33.9162Z" fill="url(#viGradient)"/>
  </g>

  <!-- CAOZ text with stroke and fill -->
  <g filter="url(#shadow)">
    <!-- Black stroke outline -->
    <path d="M115.25 132.25C118.98 132.25 120.87 130.85 120.87 127.99L120.87 115.51L109.63 115.51L109.63 123.56C109.63 123.61 109.58 123.67 109.53 123.67L106.99 123.67C106.94 123.67 106.88 123.61 106.88 123.56L106.88 106.49C106.88 106.44 106.94 106.39 106.99 106.39L109.53 106.39C109.58 106.39 109.63 106.44 109.63 106.49L109.63 112.33L120.87 112.33L120.87 102.12C120.87 99.20 118.98 97.75 115.25 97.75L101.27 97.75C97.54 97.75 95.65 99.20 95.65 102.12L95.65 127.99C95.65 130.85 97.54 132.25 101.27 132.25M137.50 110.71L134.75 110.71L134.75 106.49C134.75 106.44 134.80 106.39 134.85 106.39L137.39 106.39C137.44 106.39 137.50 106.44 137.50 106.49M148.73 132.25L148.73 102.12C148.73 99.20 146.84 97.75 143.12 97.75L129.13 97.75C125.40 97.75 123.51 99.20 123.51 102.12L123.51 132.25L134.75 132.25L134.75 119.35L137.50 119.35L137.50 132.25M165.36 123.56C165.36 123.61 165.31 123.67 165.25 123.67L162.72 123.67C162.66 123.67 162.61 123.61 162.61 123.56L162.61 106.49C162.61 106.44 162.66 106.39 162.72 106.39L165.25 106.39C165.31 106.39 165.36 106.44 165.36 106.49M170.98 132.25C174.70 132.25 176.59 130.85 176.59 127.99L176.59 102.12C176.59 99.20 174.70 97.75 170.98 97.75L156.99 97.75C153.27 97.75 151.38 99.20 151.38 102.12L151.38 127.99C151.38 130.85 153.27 132.25 156.99 132.25M204.35 132.25L204.35 123.67L192.69 123.67L204.35 105.79L204.35 97.75L179.13 97.75L179.13 106.39L191.17 106.39L179.13 123.40L179.13 132.25" fill="#000000" stroke="#000000" stroke-width="8" stroke-linejoin="round" stroke-linecap="round"/>
    <!-- White inner fill -->
    <path d="M115.25 132.25C118.98 132.25 120.87 130.85 120.87 127.99L120.87 115.51L109.63 115.51L109.63 123.56C109.63 123.61 109.58 123.67 109.53 123.67L106.99 123.67C106.94 123.67 106.88 123.61 106.88 123.56L106.88 106.49C106.88 106.44 106.94 106.39 106.99 106.39L109.53 106.39C109.58 106.39 109.63 106.44 109.63 106.49L109.63 112.33L120.87 112.33L120.87 102.12C120.87 99.20 118.98 97.75 115.25 97.75L101.27 97.75C97.54 97.75 95.65 99.20 95.65 102.12L95.65 127.99C95.65 130.85 97.54 132.25 101.27 132.25M137.50 110.71L134.75 110.71L134.75 106.49C134.75 106.44 134.80 106.39 134.85 106.39L137.39 106.39C137.44 106.39 137.50 106.44 137.50 106.49M148.73 132.25L148.73 102.12C148.73 99.20 146.84 97.75 143.12 97.75L129.13 97.75C125.40 97.75 123.51 99.20 123.51 102.12L123.51 132.25L134.75 132.25L134.75 119.35L137.50 119.35L137.50 132.25M165.36 123.56C165.36 123.61 165.31 123.67 165.25 123.67L162.72 123.67C162.66 123.67 162.61 123.61 162.61 123.56L162.61 106.49C162.61 106.44 162.66 106.39 162.72 106.39L165.25 106.39C165.31 106.39 165.36 106.44 165.36 106.49M170.98 132.25C174.70 132.25 176.59 130.85 176.59 127.99L176.59 102.12C176.59 99.20 174.70 97.75 170.98 97.75L156.99 97.75C153.27 97.75 151.38 99.20 151.38 102.12L151.38 127.99C151.38 130.85 153.27 132.25 156.99 132.25M204.35 132.25L204.35 123.67L192.69 123.67L204.35 105.79L204.35 97.75L179.13 97.75L179.13 106.39L191.17 106.39L179.13 123.40L179.13 132.25" fill="#ffffff"/>
  </g>
</svg>